<?xml version="1.0" standalone="no"?>
<!DOCTYPE svg PUBLIC "-//W3C//DTD SVG 20010904//EN"
 "http://www.w3.org/TR/2001/REC-SVG-20010904/DTD/svg10.dtd">
<svg version="1.0" xmlns="http://www.w3.org/2000/svg"
 width="225.000000pt" height="225.000000pt" viewBox="0 0 225.000000 225.000000"
 preserveAspectRatio="xMidYMid meet">
<metadata>
Created by potrace 1.11, written by Peter Selinger 2001-2013
</metadata>
<g transform="translate(0.000000,225.000000) scale(0.100000,-0.100000)"
fill="#000000" stroke="none">
<path d="M1187 2193 c-9 -11 -19 -53 -25 -104 -18 -148 -60 -227 -214 -406
-184 -214 -218 -260 -279 -384 l-40 -79 -52 0 c-126 -1 -242 -53 -343 -154
-163 -164 -201 -394 -98 -603 36 -75 140 -183 211 -221 114 -60 255 -80 377
-52 110 24 226 100 293 190 l37 50 11 -38 c20 -65 74 -157 123 -207 100 -101
210 -153 347 -162 408 -26 685 407 492 771 -107 201 -342 310 -567 262 -41 -9
-78 -12 -82 -8 -15 15 -58 203 -74 321 -8 64 -18 199 -21 301 l-6 185 41 -37
c85 -76 172 -109 380 -144 86 -14 205 -41 266 -59 146 -45 151 -43 143 72 -4
71 -11 97 -41 158 -67 136 -210 236 -385 271 -96 19 -160 15 -278 -16 -111
-29 -111 -29 -110 28 1 29 -4 56 -12 65 -18 22 -74 22 -94 0z m-28 -613 c2
-154 48 -435 93 -564 l14 -38 -59 -56 c-32 -31 -66 -69 -74 -83 l-16 -27 -22
61 c-45 129 -136 232 -259 293 l-75 37 29 56 c42 83 101 163 235 320 l120 141
7 -38 c4 -20 7 -66 7 -102z"/>
</g>
</svg>
